<svg xmlns="http://www.w3.org/2000/svg" viewBox="0 0 256 256" width="256" height="256" fill="none">
  <!-- Sharp Obsidian Shield Background -->
  <polygon points="128,16 230,90 191,220 65,220 26,90" fill="#121417" stroke="#808080" stroke-width="12" stroke-linejoin="miter"/>
  
  <!-- Inner Premium Grey Trim (Disconnected version) -->
  <polygon points="128,36 210,96 179,200 77,200 46,96" stroke="#4D4D4D" stroke-width="4" stroke-linejoin="miter"/>
  
  <!-- The Prestigious, Intense "5" (Grey version) -->
  <path d="
    M 75,75 
    H 175 
    V 105 
    H 110 
    V 130 
    C 145,125 185,135 185,170 
    C 185,205 145,210 125,210 
    C 95,210 75,195 75,180 
    H 105 
    C 105,187 115,190 125,190 
    C 140,190 155,185 155,170 
    C 155,155 140,150 125,150 
    H 75 
    Z" 
    fill="#808080" 
    stroke="#121417" 
    stroke-width="4" 
    stroke-linejoin="miter"/>
    
  <!-- Slash Cutout (Worlds Championship/Mayhem Energy) -->
  <polygon points="50,140 206,110 206,125 50,155" fill="#121417"/>
</svg>